# xmcd
#
# Track frame offsets:
#        150
#        17862
#        28867
#        47917
#
# Disc length: 874 seconds
#
# Revision: 0
# Processed by: cddbd v1.5.1PL0 Copyright (c) Steve Scherf et al.
# Submitted via: ExactAudioCopy v0.95a4
#
DISCID=2f036804
DTITLE=neil and iraiza - a.b.c.songs
DYEAR=1900
DGENRE=
TTITLE0=Alphabetique Song
TTITLE1=Blue Sad Color
TTITLE2=Call Me! I'm Allright
TTITLE3=Dub of Alphabetque
EXTD=
EXTT0=
EXTT1=
EXTT2=
EXTT3=
PLAYORDER=
